<?xml version="1.0" standalone="no"?>
<!DOCTYPE svg PUBLIC "-//W3C//DTD SVG 20010904//EN" "http://www.w3.org/TR/2001/REC-SVG-20010904/DTD/svg10.dtd">
<svg version="1.0" xmlns="http://www.w3.org/2000/svg" width="989.000000pt" height="600.000000pt"
	viewBox="0 0 989.000000 600.000000" preserveAspectRatio="xMidYMid meet">

	<g transform="translate(0.000000,600.000000) scale(0.100000,-0.100000)" fill="#3E45C7" stroke="none">
		<path d="M795 5029 c-169 -18 -325 -132 -403 -296 -34 -72 -37 -86 -40 -185
-4 -89 -1 -118 18 -175 50 -159 171 -281 330 -336 l65 -22 2410 -5 2410 -5 3
-209 c2 -161 -1 -211 -10 -218 -7 -4 -612 -8 -1343 -8 -1467 0 -1389 3 -1504
-62 -121 -69 -223 -209 -252 -345 -43 -212 69 -450 262 -552 106 -57 145 -61
661 -61 l467 0 3 -253 c2 -140 1 -267 -2 -283 l-5 -29 -1740 -5 -1740 -5 -54
-23 c-292 -124 -411 -432 -276 -709 67 -136 211 -246 359 -272 42 -8 1184 -11
3790 -11 4102 0 3803 -4 3929 62 82 43 176 139 216 219 48 99 65 196 51 294
-28 191 -149 343 -332 418 l-53 22 -1530 5 -1530 5 -3 282 -2 283 2267 2 2268
3 59 23 c219 83 359 293 343 512 -15 200 -141 375 -326 452 l-56 23 -760 2
c-418 2 -770 5 -783 8 l-22 5 2 213 3 212 315 5 c288 5 320 8 375 27 248 88
389 308 355 555 -26 188 -164 353 -350 420 l-65 23 -3850 1 c-2117 1 -3886 -2
-3930 -7z" />
	</g>
</svg>
